<svg
  width="29"
  height="25"
  viewBox="0 0 29 25"
  fill="none"
  xmlns="http://www.w3.org/2000/svg"
>
  <path
    d="M20.4161 18.4113C20.1854 18.6371 19.8971 18.75 19.5514 18.75C19.2049 18.75 18.9057 18.6268 18.654 18.3805C18.4022 18.1342 18.2764 17.8414 18.2764 17.5023C18.2764 17.164 18.4022 16.8717 18.654 16.6253L23.5314 11.8525L18.6225 7.04888C18.3917 6.82307 18.2814 6.5406 18.2915 6.20147C18.3024 5.86317 18.4232 5.58111 18.654 5.3553C18.8847 5.12949 19.1784 5.01658 19.535 5.01658C19.8917 5.01658 20.1854 5.12949 20.4161 5.3553L26.2061 11.0211C26.4578 11.2674 26.5837 11.5548 26.5837 11.8833C26.5837 12.2117 26.4578 12.4991 26.2061 12.7455L20.4161 18.4113ZM8.58453 18.4113L2.7946 12.7455C2.54286 12.4991 2.41699 12.2117 2.41699 11.8833C2.41699 11.5548 2.54286 11.2674 2.7946 11.0211L8.58453 5.3553C8.81529 5.12949 9.10898 5.01124 9.4656 5.00057C9.82223 4.99071 10.1264 5.10896 10.3781 5.3553C10.6299 5.60164 10.7558 5.89396 10.7558 6.23227C10.7558 6.57139 10.6299 6.86413 10.3781 7.11047L5.46929 11.9141L10.3781 16.7177C10.6089 16.9435 10.7192 17.2256 10.7092 17.5639C10.6983 17.903 10.5774 18.1855 10.3467 18.4113C10.1159 18.6371 9.82223 18.75 9.4656 18.75C9.10898 18.75 8.81529 18.6371 8.58453 18.4113Z"
    fill="black"
  />
</svg>