<svg
  width="29"
  height="25"
  viewBox="0 0 29 25"
  fill="none"
  xmlns="http://www.w3.org/2000/svg"
>
  <path
    d="M2.41699 5.7C2.41699 5.7 2.41699 2.5 5.43783 2.5H23.5628C23.5628 2.5 26.5837 2.5 26.5837 5.7V15.3C26.5837 15.3 26.5837 18.5 23.5628 18.5H17.5212C17.5212 19.5672 17.6465 20.3672 17.8988 20.9H19.0316C19.2319 20.9 19.424 20.9843 19.5656 21.1343C19.7072 21.2843 19.7868 21.4878 19.7868 21.7C19.7868 21.9122 19.7072 22.1157 19.5656 22.2657C19.424 22.4157 19.2319 22.5 19.0316 22.5H9.96908C9.76878 22.5 9.57669 22.4157 9.43506 22.2657C9.29343 22.1157 9.21387 21.9122 9.21387 21.7C9.21387 21.4878 9.29343 21.2843 9.43506 21.1343C9.57669 20.9843 9.76878 20.9 9.96908 20.9H11.1019C11.3541 20.3672 11.4795 19.5672 11.4795 18.5H5.43783C5.43783 18.5 2.41699 18.5 2.41699 15.3V5.7ZM4.52855 4.332C4.36264 4.45436 4.23028 4.62108 4.14491 4.8152C4.01616 5.09699 3.94219 5.40333 3.92741 5.716V15.3C3.92741 15.82 4.04522 16.1032 4.14642 16.2632C4.25215 16.4312 4.40319 16.564 4.60257 16.6696C4.85713 16.8002 5.13298 16.8779 5.41517 16.8984L5.45293 16.9H23.5628C24.0537 16.9 24.3211 16.7752 24.4721 16.668C24.638 16.5456 24.7704 16.3789 24.8557 16.1848C24.979 15.9151 25.0524 15.6229 25.0717 15.324L25.0732 15.284V5.7C25.0732 5.18 24.9554 4.8968 24.8542 4.7368C24.7388 4.561 24.5814 4.42077 24.3981 4.3304C24.1321 4.19401 23.8429 4.11566 23.5477 4.1H5.43783C4.94694 4.1 4.6796 4.2248 4.52855 4.332Z"
    fill="black"
  />
</svg>