<svg
  width="29"
  height="25"
  viewBox="0 0 29 25"
  fill="none"
  xmlns="http://www.w3.org/2000/svg"
>
  <path
    d="M18.1253 4.5V11.5H6.24741L5.53449 12.09L4.83366 12.67V4.5H18.1253ZM19.3337 2.5H3.62533C2.96074 2.5 2.41699 2.95 2.41699 3.5V17.5L7.25033 13.5H19.3337C19.9982 13.5 20.542 13.05 20.542 12.5V3.5C20.542 2.95 19.9982 2.5 19.3337 2.5ZM25.3753 6.5H22.9587V15.5H7.25033V17.5C7.25033 18.05 7.79408 18.5 8.45866 18.5H21.7503L26.5837 22.5V7.5C26.5837 6.95 26.0399 6.5 25.3753 6.5Z"
    fill="black"
  />
</svg>