<svg
  width="29"
  height="25"
  viewBox="0 0 29 25"
  fill="none"
  xmlns="http://www.w3.org/2000/svg"
>
  <path
    d="M15 12C15.55 12 16.021 11.804 16.413 11.412C16.8043 11.0207 17 10.55 17 10C17 9.45 16.8043 8.979 16.413 8.587C16.021 8.19567 15.55 8 15 8C14.45 8 13.9793 8.19567 13.588 8.587C13.196 8.979 13 9.45 13 10C13 10.55 13.196 11.0207 13.588 11.412C13.9793 11.804 14.45 12 15 12ZM15 19.35C17.0333 17.4833 18.5417 15.7873 19.525 14.262C20.5083 12.7373 21 11.3833 21 10.2C21 8.38333 20.4207 6.89567 19.262 5.737C18.104 4.579 16.6833 4 15 4C13.3167 4 11.8957 4.579 10.737 5.737C9.579 6.89567 9 8.38333 9 10.2C9 11.3833 9.49167 12.7373 10.475 14.262C11.4583 15.7873 12.9667 17.4833 15 19.35ZM15 22C12.3167 19.7167 10.3127 17.5957 8.988 15.637C7.66267 13.679 7 11.8667 7 10.2C7 7.7 7.80433 5.70833 9.413 4.225C11.021 2.74167 12.8833 2 15 2C17.1167 2 18.979 2.74167 20.587 4.225C22.1957 5.70833 23 7.7 23 10.2C23 11.8667 22.3377 13.679 21.013 15.637C19.6877 17.5957 17.6833 19.7167 15 22Z"
    fill="black"
  />
</svg>