<svg
  width="29"
  height="25"
  viewBox="0 0 29 25"
  fill="none"
  xmlns="http://www.w3.org/2000/svg"
>
  <path
    d="M5.4 22C4.74 22 4.1752 21.7554 3.7056 21.2663C3.2352 20.7763 3 20.1875 3 19.5V4.5C3 3.8125 3.2352 3.22417 3.7056 2.735C4.1752 2.245 4.74 2 5.4 2H24.6C25.26 2 25.8252 2.245 26.2956 2.735C26.7652 3.22417 27 3.8125 27 4.5V19.5C27 20.1875 26.7652 20.7763 26.2956 21.2663C25.8252 21.7554 25.26 22 24.6 22H5.4ZM15 13.25L5.4 7V19.5H24.6V7L15 13.25ZM15 10.75L24.6 4.5H5.4L15 10.75ZM5.4 7V4.5V19.5V7Z"
    fill="black"
  />
</svg>