<svg
  width="29"
  height="25"
  viewBox="0 0 29 25"
  fill="none"
  xmlns="http://www.w3.org/2000/svg"
>
  <path
    d="M26.92 4.35294C26.0028 4.76471 25.0141 5.03529 23.9896 5.16471C25.0379 4.54118 25.8479 3.55294 26.2291 2.36471C25.2404 2.95294 24.1445 3.36471 22.989 3.6C22.048 2.58824 20.7257 2 19.2248 2C16.4255 2 14.1384 4.25882 14.1384 7.04706C14.1384 7.44706 14.186 7.83529 14.2694 8.2C10.0287 7.98824 6.2526 5.97647 3.73916 2.92941C3.29841 3.67059 3.04826 4.54118 3.04826 5.45882C3.04826 7.21176 3.94166 8.76471 5.32346 9.64706C4.47771 9.64706 3.69151 9.41177 3.00061 9.05882V9.09412C3.00061 11.5412 4.7636 13.5882 7.09836 14.0471C6.34876 14.2497 5.56182 14.2778 4.79933 14.1294C5.12287 15.1323 5.75651 16.0099 6.61117 16.6387C7.46584 17.2676 8.49855 17.6161 9.56415 17.6353C7.75784 19.0476 5.51881 19.811 3.21503 19.8C2.81002 19.8 2.40501 19.7765 2 19.7294C4.26329 21.1647 6.95541 22 9.83813 22C19.2248 22 24.3827 14.3059 24.3827 7.63529C24.3827 7.41177 24.3827 7.2 24.3708 6.97647C25.3714 6.27059 26.2291 5.37647 26.92 4.35294Z"
    fill="black"
  />
</svg>