<svg
  width="29"
  height="25"
  viewBox="0 0 29 25"
  fill="none"
  xmlns="http://www.w3.org/2000/svg"
>
  <path
    d="M19.9375 6.5H18.125C18.125 4.29 16.5028 2.5 14.5 2.5C12.4972 2.5 10.875 4.29 10.875 6.5H9.0625C8.06562 6.5 7.25 7.4 7.25 8.5V20.5C7.25 21.6 8.06562 22.5 9.0625 22.5H19.9375C20.9344 22.5 21.75 21.6 21.75 20.5V8.5C21.75 7.4 20.9344 6.5 19.9375 6.5ZM14.5 4.5C15.4969 4.5 16.3125 5.4 16.3125 6.5H12.6875C12.6875 5.4 13.5031 4.5 14.5 4.5ZM19.9375 20.5H9.0625V8.5H10.875V10.5C10.875 11.05 11.2828 11.5 11.7812 11.5C12.2797 11.5 12.6875 11.05 12.6875 10.5V8.5H16.3125V10.5C16.3125 11.05 16.7203 11.5 17.2188 11.5C17.7172 11.5 18.125 11.05 18.125 10.5V8.5H19.9375V20.5Z"
    fill="black"
  />
</svg>